<svg width="272" height="60" viewBox="0 0 272 60" fill="none" xmlns="http://www.w3.org/2000/svg">
<path d="M89.85 21.6V40H86.225V32.525H78V40H74.375V21.6H78V29.025H86.225V21.6H89.85ZM93.4648 30.825C93.4648 29.5583 93.7065 28.3583 94.1898 27.225C94.6732 26.0917 95.3398 25.0917 96.1898 24.225C97.0565 23.3417 98.0565 22.65 99.1898 22.15C100.323 21.65 101.54 21.4 102.84 21.4C104.123 21.4 105.332 21.65 106.465 22.15C107.598 22.65 108.598 23.3417 109.465 24.225C110.348 25.0917 111.032 26.0917 111.515 27.225C112.015 28.3583 112.265 29.5583 112.265 30.825C112.265 32.125 112.015 33.3417 111.515 34.475C111.032 35.6083 110.348 36.6083 109.465 37.475C108.598 38.325 107.598 38.9917 106.465 39.475C105.332 39.9583 104.123 40.2 102.84 40.2C101.54 40.2 100.323 39.9583 99.1898 39.475C98.0565 38.9917 97.0565 38.325 96.1898 37.475C95.3398 36.6083 94.6732 35.6083 94.1898 34.475C93.7065 33.3417 93.4648 32.125 93.4648 30.825ZM97.2148 30.825C97.2148 31.6417 97.3565 32.4083 97.6398 33.125C97.9398 33.825 98.3482 34.45 98.8648 35C99.3982 35.5333 100.007 35.95 100.69 36.25C101.39 36.55 102.148 36.7 102.965 36.7C103.748 36.7 104.473 36.55 105.14 36.25C105.823 35.95 106.415 35.5333 106.915 35C107.415 34.45 107.807 33.825 108.09 33.125C108.373 32.4083 108.515 31.6417 108.515 30.825C108.515 29.9917 108.365 29.2167 108.065 28.5C107.782 27.7833 107.382 27.1583 106.865 26.625C106.365 26.075 105.773 25.65 105.09 25.35C104.407 25.05 103.665 24.9 102.865 24.9C102.065 24.9 101.323 25.05 100.64 25.35C99.9565 25.65 99.3565 26.075 98.8398 26.625C98.3232 27.1583 97.9232 27.7833 97.6398 28.5C97.3565 29.2167 97.2148 29.9917 97.2148 30.825ZM115.879 21.6H119.504V36.5H128.154V40H115.879V21.6ZM130.645 40C130.645 40 130.786 39.775 131.07 39.325C131.353 38.875 131.728 38.275 132.195 37.525C132.678 36.775 133.211 35.925 133.795 34.975C134.395 34.025 135.003 33.05 135.62 32.05C136.253 31.05 136.861 30.075 137.445 29.125C138.045 28.175 138.578 27.325 139.045 26.575C139.528 25.825 139.911 25.225 140.195 24.775C140.478 24.325 140.62 24.1 140.62 24.1L141.02 25.1H134.395C134.045 25.1 133.678 25.025 133.295 24.875C132.928 24.7083 132.611 24.4917 132.345 24.225C132.095 23.9417 131.97 23.6333 131.97 23.3V20.675H135.295V21.025C135.295 21.3917 135.353 21.5833 135.47 21.6C135.586 21.6 135.795 21.6 136.095 21.6H146.32L136.62 36.9L136.42 36.5H146.295V40H130.645ZM152.712 21.6L158.087 34.85L155.987 34.425L160.862 21.6H165.162L156.762 40.85L148.362 21.6H152.712ZM168.345 21.6H180.895V25.1H171.97V29.025H179.87V32.525H171.97V36.5H181.245V40H168.345V21.6ZM190.57 21.6C191.72 21.6 192.745 21.75 193.645 22.05C194.545 22.3333 195.295 22.75 195.895 23.3C196.512 23.8333 196.978 24.4833 197.295 25.25C197.612 26 197.77 26.85 197.77 27.8C197.77 28.55 197.653 29.3 197.42 30.05C197.203 30.8 196.837 31.4833 196.32 32.1C195.82 32.7167 195.153 33.2167 194.32 33.6C193.487 33.9667 192.453 34.15 191.22 34.15H188.62V40H184.995V21.6H190.57ZM191.195 30.65C191.745 30.65 192.203 30.5583 192.57 30.375C192.937 30.1917 193.22 29.9583 193.42 29.675C193.637 29.3917 193.787 29.1 193.87 28.8C193.97 28.4833 194.02 28.1917 194.02 27.925C194.02 27.725 193.987 27.475 193.92 27.175C193.87 26.8583 193.753 26.5417 193.57 26.225C193.387 25.9083 193.103 25.6417 192.72 25.425C192.353 25.2083 191.853 25.1 191.22 25.1H188.62V30.65H191.195ZM194.595 32.9L199.145 40H194.92L190.27 33L194.595 32.9ZM202.134 21.6H205.759V36.5H214.409V40H202.134V21.6ZM218.149 21.6H221.774V40H218.149V21.6ZM226.523 21.6H239.073V25.1H230.148V29.025H238.048V32.525H230.148V36.5H239.423V40H226.523V21.6ZM248.574 21.6C250.49 21.6 252.015 21.9917 253.149 22.775C254.282 23.5417 254.849 24.6917 254.849 26.225C254.849 27.3583 254.565 28.3083 253.999 29.075C253.449 29.825 252.69 30.3917 251.724 30.775C250.774 31.1417 249.682 31.325 248.449 31.325L247.874 29.375C249.39 29.375 250.732 29.5833 251.899 30C253.082 30.4167 254.015 31.0167 254.699 31.8C255.382 32.5667 255.724 33.4917 255.724 34.575C255.724 35.575 255.54 36.425 255.174 37.125C254.824 37.8083 254.34 38.3667 253.724 38.8C253.124 39.2167 252.44 39.525 251.674 39.725C250.907 39.9083 250.115 40 249.299 40H243.174V21.6H248.574ZM248.999 29.125C249.715 29.125 250.24 28.9083 250.574 28.475C250.924 28.0417 251.099 27.55 251.099 27C251.099 26.3667 250.882 25.8917 250.449 25.575C250.032 25.2583 249.465 25.1 248.749 25.1H246.799V29.125H248.999ZM249.124 36.625C249.657 36.625 250.14 36.5583 250.574 36.425C251.007 36.275 251.349 36.05 251.599 35.75C251.849 35.4333 251.974 35.0417 251.974 34.575C251.974 34.0417 251.824 33.6417 251.524 33.375C251.224 33.0917 250.832 32.9 250.349 32.8C249.882 32.6833 249.39 32.625 248.874 32.625H246.799V36.625H249.124ZM258.11 21.6H270.51V25.1H266.035V40H262.41V25.1H258.11V21.6Z" fill="black"/>
<path d="M59.9966 24.0021C59.6989 20.8753 57.7459 18.2324 55.0242 16.9559C54.564 16.74 54.32 16.2308 54.4152 15.7314C55.3105 11.0306 51.6545 6.57083 46.7983 6.62099C46.3279 6.62579 45.9105 6.3279 45.7436 5.88798C45.3705 4.90643 44.7248 4.05191 43.8823 3.42505H42.1378L40.7495 6.76349V12.6688L43.7676 13.5844L40.7495 17.025V23.5441L41.5843 24.8363H41.6903C41.7999 24.8362 41.9083 24.8596 42.0081 24.9048C42.1079 24.95 42.197 25.016 42.2693 25.0984H47.9978C48.0701 25.016 48.1592 24.95 48.259 24.9048C48.3588 24.8596 48.4672 24.8362 48.5768 24.8363H59.2263C59.6773 24.8365 60.0392 24.4511 59.9966 24.0021Z" fill="#FF636E"/>
<path d="M29.4203 25.0471C29.3688 23.5998 28.1356 22.4738 26.6874 22.4738H25.6942C25.5927 22.4738 25.4923 22.4538 25.3985 22.415C25.3048 22.3762 25.2196 22.3193 25.1479 22.2475C25.0761 22.1758 25.0192 22.0906 24.9804 21.9969C24.9416 21.9032 24.9216 21.8027 24.9216 21.7013V18.2543C24.922 16.8222 24.3766 15.4438 23.3965 14.3997H21.0308L15.719 17.4879C15.719 17.4879 12.3455 24.017 11.6981 24.2133C11.0509 24.4096 9.52174 28.3238 9.44123 28.5397C9.36072 28.7556 7.0267 31.8258 7.0267 31.8258L7.96759 35.1636L7.0267 35.7577H23.4453L24.9215 35.1636V28.5877C24.9215 28.4862 24.9414 28.3857 24.9803 28.292C25.0191 28.1983 25.076 28.1131 25.1478 28.0414C25.2195 27.9696 25.3047 27.9127 25.3984 27.8739C25.4922 27.8351 25.5926 27.8152 25.6941 27.8152H26.7512C28.2586 27.8149 29.4742 26.5664 29.4203 25.0471Z" fill="#FFE02F"/>
<path d="M12.9797 27.2828C13.4399 27.067 13.6839 26.5578 13.5887 26.0583C12.6933 21.3576 16.3494 16.8978 21.2055 16.9479C21.6759 16.9527 22.0935 16.6549 22.2602 16.2149C22.5163 15.5411 22.9024 14.9243 23.3966 14.3995C22.4262 13.3648 21.0689 12.7028 19.5493 12.67C17.1492 12.6182 15.0915 14.1068 14.2923 16.2151C14.1255 16.655 13.7081 16.9529 13.2376 16.9481C8.38148 16.8978 4.72535 21.3576 5.62078 26.0585C5.71594 26.5578 5.47195 27.0671 5.01176 27.2829C2.05113 28.6713 0 31.677 0 35.1635L1.1516 35.7575H9.11941L7.96781 35.1635C7.96781 31.677 10.0189 28.6713 12.9797 27.2828Z" fill="#FBC700"/>
<path d="M48.2095 24.8364H42.406C42.3046 24.8364 42.2041 24.8165 42.1103 24.7777C42.0166 24.7388 41.9314 24.6819 41.8597 24.6102C41.7879 24.5385 41.731 24.4533 41.6922 24.3596C41.6534 24.2658 41.6334 24.1654 41.6334 24.0639V18.2604C41.6334 18.159 41.6534 18.0585 41.6922 17.9648C41.731 17.8711 41.7879 17.7859 41.8597 17.7142C41.9314 17.6424 42.0166 17.5855 42.1103 17.5467C42.2041 17.5079 42.3046 17.4879 42.406 17.4879H43.4632C44.9704 17.4879 46.186 16.2393 46.132 14.72C46.0807 13.2727 44.8473 12.1467 43.3991 12.1467H42.4059C42.3044 12.1467 42.204 12.1267 42.1102 12.0879C42.0165 12.0491 41.9313 11.9922 41.8596 11.9204C41.7878 11.8487 41.7309 11.7635 41.6921 11.6698C41.6533 11.5761 41.6333 11.4756 41.6333 11.3742V7.9272C41.633 7.05375 41.8361 6.19223 42.2264 5.41084C42.6168 4.62945 43.1836 3.94964 43.8821 3.42521C42.938 2.72232 41.7604 2.31568 40.4864 2.3431C37.4848 2.40779 35.1141 4.92509 35.1141 7.9272V11.3742C35.1141 11.4756 35.1341 11.5761 35.1729 11.6698C35.2118 11.7635 35.2687 11.8487 35.3404 11.9204C35.4122 11.9922 35.4974 12.0491 35.5911 12.0879C35.6848 12.1267 35.7853 12.1467 35.8868 12.1467H36.8799C38.3281 12.1467 39.5614 13.2727 39.6128 14.72C39.6668 16.2393 38.4512 17.4879 36.944 17.4879H35.8869C35.7854 17.4879 35.6849 17.5079 35.5912 17.5467C35.4975 17.5855 35.4123 17.6424 35.3406 17.7142C35.2688 17.7859 35.2119 17.8711 35.1731 17.9648C35.1342 18.0585 35.1143 18.159 35.1143 18.2604V24.0639C35.1143 24.1654 35.1342 24.2658 35.1731 24.3596C35.2119 24.4533 35.2688 24.5385 35.3406 24.6102C35.4123 24.6819 35.4975 24.7388 35.5912 24.7777C35.6849 24.8165 35.7854 24.8364 35.8869 24.8364H41.6903C41.7918 24.8364 41.8923 24.8564 41.986 24.8952C42.0797 24.934 42.1649 24.9909 42.2367 25.0626C42.3084 25.1344 42.3653 25.2195 42.4041 25.3133C42.443 25.407 42.463 25.5075 42.463 25.6089V26.6021C42.463 28.0502 43.589 29.2836 45.0363 29.335C46.5556 29.389 47.8042 28.1735 47.8042 26.6662V25.609C47.8042 25.2458 48.0554 24.9419 48.3932 24.8594C48.3331 24.8444 48.2714 24.8367 48.2095 24.8364Z" fill="#FF4654"/>
<path d="M49.0336 35.1636H38.3841C38.1792 35.1636 37.9827 35.245 37.8379 35.3898C37.693 35.5347 37.6116 35.7312 37.6116 35.9361V36.9292C37.6116 38.3773 36.4855 39.6106 35.0384 39.662C33.5191 39.7161 32.2703 38.5005 32.2703 36.9932V35.9361C32.2703 35.8346 32.2503 35.7342 32.2115 35.6404C32.1727 35.5467 32.1158 35.4615 32.044 35.3898C31.9723 35.3181 31.8871 35.2612 31.7934 35.2223C31.6996 35.1835 31.5992 35.1636 31.4977 35.1636H24.9217L24.0895 36.024V41.5524H21.7152L19.7031 44.1608V46.4109L21.7554 48.4338H24.0493V51.0897L24.9218 52.0729C24.9218 55.075 27.2927 57.5923 30.2941 57.657C32.6943 57.7088 34.7519 56.2202 35.5511 54.112C35.7178 53.672 36.1353 53.3742 36.6058 53.379C41.4591 53.4288 45.118 48.9703 44.2226 44.2686C44.1275 43.7692 44.3714 43.2601 44.8316 43.0442C47.5533 41.7678 49.5064 39.1247 49.804 35.9979C49.8467 35.549 49.4847 35.1636 49.0336 35.1636Z" fill="#60B9FE"/>
<path d="M17.5731 34.391V33.3979C17.5731 31.9498 16.447 30.7165 14.9999 30.6651C13.4806 30.611 12.2318 31.8266 12.2318 33.3339V34.391C12.2318 34.4925 12.2118 34.593 12.173 34.6867C12.1342 34.7804 12.0773 34.8656 12.0055 34.9373C11.9338 35.0091 11.8486 35.066 11.7549 35.1048C11.6611 35.1436 11.5607 35.1636 11.4592 35.1635H7.96783L7.02693 35.7576C7.02693 35.7576 8.87802 42.0353 9.36095 42.9205C9.84388 43.8059 13.7071 49.9226 13.7071 50.4055C13.7071 50.8885 16.7654 54.1077 16.7654 54.1077L23.3967 55.9274C24.3768 54.8832 24.9222 53.5048 24.9218 52.0728V48.6258C24.9218 48.5244 24.9018 48.4239 24.863 48.3302C24.8242 48.2365 24.7673 48.1513 24.6956 48.0796C24.6238 48.0078 24.5387 47.9509 24.4449 47.9121C24.3512 47.8733 24.2508 47.8533 24.1493 47.8533H23.0922C21.585 47.8533 20.3693 46.6047 20.4233 45.0853C20.4747 43.6381 21.7081 42.512 23.1563 42.512H24.1494C24.2509 42.512 24.3513 42.492 24.4451 42.4532C24.5388 42.4144 24.6239 42.3575 24.6957 42.2858C24.7674 42.214 24.8243 42.1289 24.8631 42.0351C24.9019 41.9414 24.9219 41.841 24.9219 41.7395V35.1635H18.3457C18.2443 35.1636 18.1438 35.1436 18.0501 35.1048C17.9563 35.066 17.8712 35.0091 17.7994 34.9373C17.7277 34.8656 17.6707 34.7804 17.6319 34.6867C17.5931 34.593 17.5731 34.4925 17.5731 34.391Z" fill="#73D578"/>
<path d="M22.2602 54.112C22.0935 53.672 21.6761 53.3742 21.2057 53.379C16.3523 53.4288 12.6934 48.9703 13.5888 44.2686C13.684 43.7692 13.44 43.2601 12.9798 43.0442C10.0191 41.6558 7.96793 38.65 7.96793 35.1636H0C0 38.65 2.05113 41.6558 5.01188 43.0442C5.47207 43.2601 5.71605 43.7692 5.6209 44.2686C4.72547 48.9701 8.38441 53.4286 13.2377 53.379C13.7081 53.3742 14.1255 53.672 14.2923 54.112C15.0915 56.2202 17.1492 57.7088 19.5493 57.657C21.0689 57.6242 22.4261 56.9622 23.3966 55.9276C22.9024 55.4027 22.5163 54.7858 22.2602 54.112Z" fill="#00C63A"/>
</svg>
