<svg width="22" height="18" viewBox="0 0 22 18" fill="none" xmlns="http://www.w3.org/2000/svg">
<path fill-rule="evenodd" clip-rule="evenodd" d="M8.69358 3.21616e-07H12.8064C14.6442 -1.55332e-05 16.0998 -2.81632e-05 17.239 0.153135C18.4114 0.310763 19.3604 0.64288 20.1088 1.39124C20.8571 2.13961 21.1892 3.08856 21.3469 4.26098C21.4373 4.93385 21.4744 5.7171 21.4895 6.62428C21.4964 6.66516 21.5 6.70716 21.5 6.75C21.5 6.78525 21.4976 6.81994 21.4929 6.8539C21.5 7.41962 21.5 8.03183 21.5 8.69359V8.80641C21.5 10.6442 21.5 12.0998 21.3469 13.239C21.1892 14.4114 20.8571 15.3604 20.1088 16.1088C19.3604 16.8571 18.4114 17.1892 17.239 17.3469C16.0998 17.5 14.6442 17.5 12.8064 17.5H8.69359C6.85583 17.5 5.40019 17.5 4.26098 17.3469C3.08856 17.1892 2.13961 16.8571 1.39124 16.1088C0.64288 15.3604 0.310763 14.4114 0.153135 13.239C-2.81632e-05 12.0998 -1.55323e-05 10.6442 3.22565e-07 8.80642V8.69358C-5.39948e-06 8.03182 -1.06446e-05 7.41961 0.00713631 6.85388C0.00243207 6.81993 6.80193e-07 6.78525 6.80193e-07 6.75C6.80193e-07 6.70716 0.00359186 6.66517 0.0104895 6.62429C0.0256419 5.71711 0.0626699 4.93385 0.153135 4.26098C0.310763 3.08856 0.64288 2.13961 1.39124 1.39124C2.13961 0.64288 3.08856 0.310763 4.26098 0.153135C5.40019 -2.81632e-05 6.85582 -1.55332e-05 8.69358 3.21616e-07ZM1.50199 7.5C1.50009 7.88839 1.5 8.3041 1.5 8.75C1.5 10.6568 1.50159 12.0115 1.63976 13.0392C1.77502 14.0452 2.02869 14.6249 2.4519 15.0481C2.87511 15.4713 3.45476 15.725 4.46085 15.8602C5.48851 15.9984 6.84318 16 8.75 16H12.75C14.6568 16 16.0115 15.9984 17.0392 15.8602C18.0452 15.725 18.6249 15.4713 19.0481 15.0481C19.4713 14.6249 19.725 14.0452 19.8602 13.0392C19.9984 12.0115 20 10.6568 20 8.75C20 8.3041 19.9999 7.88839 19.998 7.5H1.50199ZM19.9739 6H1.52607C1.54564 5.41327 1.57987 4.90634 1.63976 4.46085C1.77502 3.45476 2.02869 2.87511 2.4519 2.4519C2.87511 2.02869 3.45476 1.77502 4.46085 1.63976C5.48851 1.50159 6.84318 1.5 8.75 1.5H12.75C14.6568 1.5 16.0115 1.50159 17.0392 1.63976C18.0452 1.77502 18.6249 2.02869 19.0481 2.4519C19.4713 2.87511 19.725 3.45476 19.8602 4.46085C19.9201 4.90634 19.9544 5.41327 19.9739 6ZM4 12.75C4 12.3358 4.33579 12 4.75 12H8.75C9.16421 12 9.5 12.3358 9.5 12.75C9.5 13.1642 9.16421 13.5 8.75 13.5H4.75C4.33579 13.5 4 13.1642 4 12.75ZM10.5 12.75C10.5 12.3358 10.8358 12 11.25 12H12.75C13.1642 12 13.5 12.3358 13.5 12.75C13.5 13.1642 13.1642 13.5 12.75 13.5H11.25C10.8358 13.5 10.5 13.1642 10.5 12.75Z" fill="#1C274C"/>
</svg>

