<svg width="22" height="22" viewBox="0 0 22 22" fill="none" xmlns="http://www.w3.org/2000/svg">
<path fill-rule="evenodd" clip-rule="evenodd" d="M4 8.05277V6.75C4 3.02208 7.02208 0 10.75 0C14.4779 0 17.5 3.02208 17.5 6.75V8.05277C17.7268 8.06872 17.9406 8.08948 18.1418 8.11652C19.0419 8.23754 19.7997 8.49643 20.4017 9.09835C21.0036 9.70027 21.2625 10.4581 21.3835 11.3582C21.5 12.2252 21.5 13.3275 21.5 14.6951V14.8049C21.5 16.1725 21.5 17.2748 21.3835 18.1418C21.2625 19.0419 21.0036 19.7997 20.4017 20.4016C19.7997 21.0036 19.0419 21.2625 18.1418 21.3835C17.2748 21.5 16.1725 21.5 14.8049 21.5H6.69513C5.32754 21.5 4.22522 21.5 3.35825 21.3835C2.45814 21.2625 1.70027 21.0036 1.09835 20.4016C0.496434 19.7997 0.237541 19.0419 0.116524 18.1418C-3.5964e-05 17.2748 -1.96761e-05 16.1725 5.30019e-07 14.8049V14.6951C-1.96761e-05 13.3275 -3.5964e-05 12.2252 0.116524 11.3582C0.237541 10.4581 0.496434 9.70027 1.09835 9.09835C1.70027 8.49643 2.45814 8.23754 3.35825 8.11652C3.55938 8.08948 3.77317 8.06872 4 8.05277ZM5.5 6.75C5.5 3.85051 7.85051 1.5 10.75 1.5C13.6495 1.5 16 3.85051 16 6.75V8.00344C15.6265 7.99999 15.2284 7.99999 14.8049 8H6.69513C6.27161 7.99999 5.87353 7.99999 5.5 8.00344V6.75ZM2.15901 10.159C2.43577 9.88225 2.82435 9.7018 3.55812 9.60315C4.31347 9.50159 5.31459 9.5 6.75 9.5H14.75C16.1854 9.5 17.1865 9.50159 17.9419 9.60315C18.6757 9.7018 19.0642 9.88225 19.341 10.159C19.6178 10.4358 19.7982 10.8243 19.8969 11.5581C19.9984 12.3135 20 13.3146 20 14.75C20 16.1854 19.9984 17.1865 19.8969 17.9419C19.7982 18.6757 19.6178 19.0642 19.341 19.341C19.0642 19.6178 18.6757 19.7982 17.9419 19.8969C17.1865 19.9984 16.1854 20 14.75 20H6.75C5.31459 20 4.31347 19.9984 3.55812 19.8969C2.82435 19.7982 2.43577 19.6178 2.15901 19.341C1.88225 19.0642 1.7018 18.6757 1.60315 17.9419C1.50159 17.1865 1.5 16.1854 1.5 14.75C1.5 13.3146 1.50159 12.3135 1.60315 11.5581C1.7018 10.8243 1.88225 10.4358 2.15901 10.159Z" fill="#1C274C"/>
</svg>

