<svg width="277" height="60" viewBox="0 0 277 60" fill="none" xmlns="http://www.w3.org/2000/svg">
<path d="M79.775 21.6C81.6917 21.6 83.2167 21.9917 84.35 22.775C85.4833 23.5417 86.05 24.6917 86.05 26.225C86.05 27.3583 85.7667 28.3083 85.2 29.075C84.65 29.825 83.8917 30.3917 82.925 30.775C81.975 31.1417 80.8833 31.325 79.65 31.325L79.075 29.375C80.5917 29.375 81.9333 29.5833 83.1 30C84.2833 30.4167 85.2167 31.0167 85.9 31.8C86.5833 32.5667 86.925 33.4917 86.925 34.575C86.925 35.575 86.7417 36.425 86.375 37.125C86.025 37.8083 85.5417 38.3667 84.925 38.8C84.325 39.2167 83.6417 39.525 82.875 39.725C82.1083 39.9083 81.3167 40 80.5 40H74.375V21.6H79.775ZM80.2 29.125C80.9167 29.125 81.4417 28.9083 81.775 28.475C82.125 28.0417 82.3 27.55 82.3 27C82.3 26.3667 82.0833 25.8917 81.65 25.575C81.2333 25.2583 80.6667 25.1 79.95 25.1H78V29.125H80.2ZM80.325 36.625C80.8583 36.625 81.3417 36.5583 81.775 36.425C82.2083 36.275 82.55 36.05 82.8 35.75C83.05 35.4333 83.175 35.0417 83.175 34.575C83.175 34.0417 83.025 33.6417 82.725 33.375C82.425 33.0917 82.0333 32.9 81.55 32.8C81.0833 32.6833 80.5917 32.625 80.075 32.625H78V36.625H80.325ZM93.5115 40.525C92.5282 40.525 91.7032 40.225 91.0365 39.625C90.3699 39.0083 90.0199 38.2167 89.9865 37.25V29.075H93.4865V35.95C93.5199 36.4333 93.6449 36.825 93.8615 37.125C94.0782 37.4083 94.4449 37.55 94.9615 37.55C95.4782 37.55 95.9199 37.375 96.2865 37.025C96.6699 36.675 96.9615 36.2 97.1615 35.6C97.3782 34.9833 97.4865 34.2917 97.4865 33.525V29.075H100.987V40H97.8115L97.5365 38L97.5865 38.225C97.3365 38.675 97.0199 39.075 96.6365 39.425C96.2532 39.775 95.7949 40.0417 95.2615 40.225C94.7449 40.425 94.1615 40.525 93.5115 40.525ZM107.761 29.075L108.036 31L107.986 30.85C108.419 30.1167 108.961 29.55 109.611 29.15C110.261 28.7333 111.044 28.525 111.961 28.525C112.561 28.525 113.086 28.6083 113.536 28.775C114.003 28.9417 114.394 29.1917 114.711 29.525C115.028 29.8417 115.244 30.2583 115.361 30.775L115.236 30.8C115.703 30.1167 116.261 29.5667 116.911 29.15C117.578 28.7333 118.269 28.525 118.986 28.525C120.069 28.525 120.928 28.8333 121.561 29.45C122.211 30.05 122.544 30.8333 122.561 31.8V40H119.086V33.25C119.069 32.7667 118.994 32.375 118.861 32.075C118.728 31.7583 118.419 31.5833 117.936 31.55C117.369 31.55 116.886 31.75 116.486 32.15C116.103 32.5333 115.811 33.0333 115.611 33.65C115.428 34.25 115.336 34.875 115.336 35.525V40H111.836V33.25C111.819 32.7667 111.728 32.375 111.561 32.075C111.411 31.7583 111.094 31.5833 110.611 31.55C110.061 31.55 109.594 31.75 109.211 32.15C108.844 32.5333 108.561 33.025 108.361 33.625C108.178 34.225 108.086 34.8417 108.086 35.475V40H104.586V29.075H107.761ZM133.343 40.3C132.426 40.3 131.651 40.15 131.018 39.85C130.401 39.5333 129.86 39.125 129.393 38.625L129.668 37.875V40H126.168V20.275H129.643V30.95V29.825C130.076 29.4583 130.651 29.15 131.368 28.9C132.085 28.65 132.901 28.525 133.818 28.525C134.768 28.525 135.635 28.75 136.418 29.2C137.201 29.65 137.826 30.3083 138.293 31.175C138.776 32.025 139.018 33.0667 139.018 34.3C139.018 35.5333 138.751 36.6 138.218 37.5C137.701 38.4 137.01 39.0917 136.143 39.575C135.276 40.0583 134.343 40.3 133.343 40.3ZM132.568 37.35C133.085 37.35 133.56 37.2167 133.993 36.95C134.443 36.6833 134.801 36.3167 135.068 35.85C135.335 35.3833 135.468 34.8583 135.468 34.275C135.468 33.6917 135.335 33.175 135.068 32.725C134.801 32.275 134.443 31.925 133.993 31.675C133.56 31.4083 133.085 31.275 132.568 31.275C132.118 31.275 131.693 31.35 131.293 31.5C130.91 31.6333 130.576 31.8333 130.293 32.1C130.026 32.35 129.818 32.6583 129.668 33.025V35.7C129.868 36.0667 130.101 36.375 130.368 36.625C130.651 36.8583 130.976 37.0417 131.343 37.175C131.71 37.2917 132.118 37.35 132.568 37.35ZM141.769 20.275H145.269V40H141.769V20.275ZM154.248 40.3C152.915 40.3 151.782 40.05 150.848 39.55C149.932 39.05 149.232 38.3583 148.748 37.475C148.265 36.5917 148.023 35.575 148.023 34.425C148.023 33.325 148.307 32.3333 148.873 31.45C149.44 30.5667 150.198 29.8667 151.148 29.35C152.098 28.8167 153.157 28.55 154.323 28.55C155.89 28.55 157.173 29.0083 158.173 29.925C159.19 30.825 159.848 32.1333 160.148 33.85L151.648 36.55L150.873 34.65L157.023 32.575L156.298 32.9C156.165 32.4667 155.923 32.0917 155.573 31.775C155.24 31.4417 154.732 31.275 154.048 31.275C153.532 31.275 153.073 31.4 152.673 31.65C152.29 31.8833 151.99 32.225 151.773 32.675C151.573 33.1083 151.473 33.625 151.473 34.225C151.473 34.9083 151.598 35.4833 151.848 35.95C152.098 36.4 152.44 36.7417 152.873 36.975C153.307 37.2083 153.79 37.325 154.323 37.325C154.707 37.325 155.073 37.2583 155.423 37.125C155.79 36.9917 156.148 36.8167 156.498 36.6L158.048 39.2C157.465 39.5333 156.832 39.8 156.148 40C155.482 40.2 154.848 40.3 154.248 40.3ZM168.667 21.6C170.583 21.6 172.108 21.9917 173.242 22.775C174.375 23.5417 174.942 24.6917 174.942 26.225C174.942 27.3583 174.658 28.3083 174.092 29.075C173.542 29.825 172.783 30.3917 171.817 30.775C170.867 31.1417 169.775 31.325 168.542 31.325L167.967 29.375C169.483 29.375 170.825 29.5833 171.992 30C173.175 30.4167 174.108 31.0167 174.792 31.8C175.475 32.5667 175.817 33.4917 175.817 34.575C175.817 35.575 175.633 36.425 175.267 37.125C174.917 37.8083 174.433 38.3667 173.817 38.8C173.217 39.2167 172.533 39.525 171.767 39.725C171 39.9083 170.208 40 169.392 40H163.267V21.6H168.667ZM169.092 29.125C169.808 29.125 170.333 28.9083 170.667 28.475C171.017 28.0417 171.192 27.55 171.192 27C171.192 26.3667 170.975 25.8917 170.542 25.575C170.125 25.2583 169.558 25.1 168.842 25.1H166.892V29.125H169.092ZM169.217 36.625C169.75 36.625 170.233 36.5583 170.667 36.425C171.1 36.275 171.442 36.05 171.692 35.75C171.942 35.4333 172.067 35.0417 172.067 34.575C172.067 34.0417 171.917 33.6417 171.617 33.375C171.317 33.0917 170.925 32.9 170.442 32.8C169.975 32.6833 169.483 32.625 168.967 32.625H166.892V36.625H169.217ZM184.253 40.3C182.92 40.3 181.786 40.05 180.853 39.55C179.936 39.05 179.236 38.3583 178.753 37.475C178.27 36.5917 178.028 35.575 178.028 34.425C178.028 33.325 178.311 32.3333 178.878 31.45C179.445 30.5667 180.203 29.8667 181.153 29.35C182.103 28.8167 183.161 28.55 184.328 28.55C185.895 28.55 187.178 29.0083 188.178 29.925C189.195 30.825 189.853 32.1333 190.153 33.85L181.653 36.55L180.878 34.65L187.028 32.575L186.303 32.9C186.17 32.4667 185.928 32.0917 185.578 31.775C185.245 31.4417 184.736 31.275 184.053 31.275C183.536 31.275 183.078 31.4 182.678 31.65C182.295 31.8833 181.995 32.225 181.778 32.675C181.578 33.1083 181.478 33.625 181.478 34.225C181.478 34.9083 181.603 35.4833 181.853 35.95C182.103 36.4 182.445 36.7417 182.878 36.975C183.311 37.2083 183.795 37.325 184.328 37.325C184.711 37.325 185.078 37.2583 185.428 37.125C185.795 36.9917 186.153 36.8167 186.503 36.6L188.053 39.2C187.47 39.5333 186.836 39.8 186.153 40C185.486 40.2 184.853 40.3 184.253 40.3ZM198.071 40.3C196.738 40.3 195.605 40.05 194.671 39.55C193.755 39.05 193.055 38.3583 192.571 37.475C192.088 36.5917 191.846 35.575 191.846 34.425C191.846 33.325 192.13 32.3333 192.696 31.45C193.263 30.5667 194.021 29.8667 194.971 29.35C195.921 28.8167 196.98 28.55 198.146 28.55C199.713 28.55 200.996 29.0083 201.996 29.925C203.013 30.825 203.671 32.1333 203.971 33.85L195.471 36.55L194.696 34.65L200.846 32.575L200.121 32.9C199.988 32.4667 199.746 32.0917 199.396 31.775C199.063 31.4417 198.555 31.275 197.871 31.275C197.355 31.275 196.896 31.4 196.496 31.65C196.113 31.8833 195.813 32.225 195.596 32.675C195.396 33.1083 195.296 33.625 195.296 34.225C195.296 34.9083 195.421 35.4833 195.671 35.95C195.921 36.4 196.263 36.7417 196.696 36.975C197.13 37.2083 197.613 37.325 198.146 37.325C198.53 37.325 198.896 37.2583 199.246 37.125C199.613 36.9917 199.971 36.8167 200.321 36.6L201.871 39.2C201.288 39.5333 200.655 39.8 199.971 40C199.305 40.2 198.671 40.3 198.071 40.3ZM216.915 26.05C216.215 25.6667 215.498 25.35 214.765 25.1C214.048 24.85 213.373 24.725 212.74 24.725C211.957 24.725 211.34 24.8833 210.89 25.2C210.44 25.5167 210.215 25.9917 210.215 26.625C210.215 27.0583 210.382 27.45 210.715 27.8C211.065 28.1333 211.507 28.4333 212.04 28.7C212.59 28.9667 213.157 29.2083 213.74 29.425C214.273 29.625 214.798 29.8667 215.315 30.15C215.848 30.4167 216.323 30.7583 216.74 31.175C217.157 31.575 217.49 32.0833 217.74 32.7C217.99 33.3 218.115 34.0417 218.115 34.925C218.115 35.8583 217.873 36.725 217.39 37.525C216.907 38.325 216.198 38.975 215.265 39.475C214.332 39.9583 213.182 40.2 211.815 40.2C211.115 40.2 210.398 40.1333 209.665 40C208.948 39.85 208.24 39.6333 207.54 39.35C206.84 39.05 206.165 38.675 205.515 38.225L207.115 35.4C207.548 35.7167 208.015 36 208.515 36.25C209.032 36.4833 209.548 36.6667 210.065 36.8C210.582 36.9333 211.057 37 211.49 37C211.923 37 212.357 36.9417 212.79 36.825C213.24 36.6917 213.607 36.475 213.89 36.175C214.19 35.875 214.34 35.4583 214.34 34.925C214.34 34.5583 214.215 34.225 213.965 33.925C213.732 33.625 213.407 33.35 212.99 33.1C212.59 32.85 212.148 32.6333 211.665 32.45C211.098 32.2333 210.515 31.9833 209.915 31.7C209.315 31.4167 208.748 31.075 208.215 30.675C207.698 30.2583 207.273 29.75 206.94 29.15C206.623 28.5333 206.465 27.7833 206.465 26.9C206.465 25.8333 206.698 24.9083 207.165 24.125C207.648 23.3417 208.323 22.725 209.19 22.275C210.057 21.8083 211.057 21.55 212.19 21.5C213.673 21.5 214.873 21.675 215.79 22.025C216.723 22.375 217.557 22.7917 218.29 23.275L216.915 26.05ZM224.265 29.075L224.54 31L224.49 30.85C224.923 30.1167 225.465 29.55 226.115 29.15C226.765 28.7333 227.548 28.525 228.465 28.525C229.065 28.525 229.59 28.6083 230.04 28.775C230.507 28.9417 230.898 29.1917 231.215 29.525C231.532 29.8417 231.748 30.2583 231.865 30.775L231.74 30.8C232.207 30.1167 232.765 29.5667 233.415 29.15C234.082 28.7333 234.773 28.525 235.49 28.525C236.573 28.525 237.432 28.8333 238.065 29.45C238.715 30.05 239.048 30.8333 239.065 31.8V40H235.59V33.25C235.573 32.7667 235.498 32.375 235.365 32.075C235.232 31.7583 234.923 31.5833 234.44 31.55C233.873 31.55 233.39 31.75 232.99 32.15C232.607 32.5333 232.315 33.0333 232.115 33.65C231.932 34.25 231.84 34.875 231.84 35.525V40H228.34V33.25C228.323 32.7667 228.232 32.375 228.065 32.075C227.915 31.7583 227.598 31.5833 227.115 31.55C226.565 31.55 226.098 31.75 225.715 32.15C225.348 32.5333 225.065 33.025 224.865 33.625C224.682 34.225 224.59 34.8417 224.59 35.475V40H221.09V29.075H224.265ZM247.272 40.3C246.255 40.3 245.33 40.1 244.497 39.7C243.68 39.2833 243.03 38.65 242.547 37.8C242.064 36.95 241.822 35.8667 241.822 34.55C241.822 33.3167 242.072 32.25 242.572 31.35C243.072 30.45 243.73 29.7583 244.547 29.275C245.364 28.775 246.23 28.525 247.147 28.525C248.23 28.525 249.047 28.7083 249.597 29.075C250.164 29.425 250.63 29.8167 250.997 30.25L250.847 30.675L251.172 29.075H254.422V40H250.922V37.625L251.197 38.375C251.164 38.375 251.064 38.475 250.897 38.675C250.73 38.8583 250.48 39.0833 250.147 39.35C249.83 39.6 249.43 39.8167 248.947 40C248.48 40.2 247.922 40.3 247.272 40.3ZM248.272 37.45C248.689 37.45 249.064 37.3917 249.397 37.275C249.73 37.1417 250.022 36.9583 250.272 36.725C250.522 36.475 250.739 36.1667 250.922 35.8V33.125C250.789 32.7583 250.589 32.45 250.322 32.2C250.055 31.9333 249.739 31.7333 249.372 31.6C249.005 31.45 248.597 31.375 248.147 31.375C247.647 31.375 247.18 31.5083 246.747 31.775C246.33 32.025 245.997 32.375 245.747 32.825C245.497 33.275 245.372 33.7917 245.372 34.375C245.372 34.9583 245.505 35.4833 245.772 35.95C246.039 36.4167 246.389 36.7833 246.822 37.05C247.272 37.3167 247.755 37.45 248.272 37.45ZM261.179 29.075L261.504 32.075L261.429 31.625C261.745 30.975 262.179 30.425 262.729 29.975C263.279 29.5083 263.82 29.15 264.354 28.9C264.904 28.65 265.32 28.525 265.604 28.525L265.429 32.025C264.612 31.925 263.912 32.0583 263.329 32.425C262.745 32.7917 262.295 33.275 261.979 33.875C261.662 34.475 261.504 35.0917 261.504 35.725V40H258.029V29.075H261.179ZM269.307 24.275H272.807V29.025H275.457V31.75H272.807V40H269.307V31.75H267.607V29.025H269.307V24.275Z" fill="black"/>
<path d="M59.9966 24.002C59.6989 20.8752 57.7459 18.2323 55.0242 16.9557C54.564 16.7399 54.32 16.2307 54.4152 15.7313C55.3105 11.0305 51.6545 6.57071 46.7983 6.62087C46.3279 6.62567 45.9105 6.32778 45.7436 5.88786C45.3705 4.90631 44.7248 4.05179 43.8823 3.42493H42.1378L40.7495 6.76337V12.6687L43.7676 13.5843L40.7495 17.0249V23.544L41.5843 24.8361H41.6903C41.7999 24.8361 41.9083 24.8595 42.0081 24.9047C42.1079 24.9499 42.197 25.0159 42.2693 25.0983H47.9978C48.0701 25.0159 48.1592 24.9499 48.259 24.9047C48.3588 24.8595 48.4672 24.8361 48.5768 24.8361H59.2263C59.6773 24.8364 60.0392 24.4509 59.9966 24.002Z" fill="#FF636E"/>
<path d="M29.4203 25.0471C29.3688 23.5998 28.1356 22.4738 26.6874 22.4738H25.6942C25.5927 22.4738 25.4923 22.4538 25.3985 22.415C25.3048 22.3762 25.2196 22.3193 25.1479 22.2476C25.0761 22.1758 25.0192 22.0907 24.9804 21.9969C24.9416 21.9032 24.9216 21.8027 24.9216 21.7013V18.2543C24.922 16.8222 24.3766 15.4438 23.3965 14.3997H21.0308L15.719 17.4879C15.719 17.4879 12.3455 24.017 11.6981 24.2133C11.0509 24.4096 9.52174 28.3238 9.44123 28.5398C9.36072 28.7556 7.0267 31.8258 7.0267 31.8258L7.96759 35.1637L7.0267 35.7577H23.4453L24.9215 35.1637V28.5877C24.9215 28.4862 24.9414 28.3858 24.9803 28.292C25.0191 28.1983 25.076 28.1131 25.1478 28.0414C25.2195 27.9697 25.3047 27.9128 25.3984 27.874C25.4922 27.8351 25.5926 27.8152 25.6941 27.8152H26.7512C28.2586 27.8149 29.4742 26.5664 29.4203 25.0471Z" fill="#FFE02F"/>
<path d="M12.9797 27.2829C13.4399 27.067 13.6839 26.5579 13.5887 26.0584C12.6933 21.3577 16.3494 16.8979 21.2055 16.948C21.6759 16.9528 22.0935 16.6549 22.2602 16.215C22.5163 15.5412 22.9024 14.9243 23.3966 14.3995C22.4262 13.3649 21.0689 12.7029 19.5493 12.6701C17.1492 12.6183 15.0915 14.1069 14.2923 16.2151C14.1255 16.655 13.7081 16.9529 13.2376 16.9481C8.38148 16.8979 4.72535 21.3577 5.62078 26.0585C5.71594 26.5579 5.47195 27.0671 5.01176 27.283C2.05113 28.6713 0 31.6771 0 35.1635L1.1516 35.7575H9.11941L7.96781 35.1635C7.96781 31.6771 10.0189 28.6713 12.9797 27.2829Z" fill="#FBC700"/>
<path d="M48.2095 24.8364H42.406C42.3046 24.8364 42.2041 24.8164 42.1103 24.7776C42.0166 24.7388 41.9314 24.6819 41.8597 24.6102C41.7879 24.5384 41.731 24.4533 41.6922 24.3595C41.6534 24.2658 41.6334 24.1653 41.6334 24.0639V18.2604C41.6334 18.1589 41.6534 18.0585 41.6922 17.9647C41.731 17.871 41.7879 17.7858 41.8597 17.7141C41.9314 17.6424 42.0166 17.5855 42.1103 17.5467C42.2041 17.5079 42.3046 17.4879 42.406 17.4879H43.4632C44.9704 17.4879 46.186 16.2393 46.132 14.7199C46.0807 13.2727 44.8473 12.1466 43.3991 12.1466H42.4059C42.3044 12.1466 42.204 12.1267 42.1102 12.0878C42.0165 12.049 41.9313 11.9921 41.8596 11.9204C41.7878 11.8487 41.7309 11.7635 41.6921 11.6698C41.6533 11.576 41.6333 11.4756 41.6333 11.3741V7.92715C41.633 7.0537 41.8361 6.19218 42.2264 5.41079C42.6168 4.6294 43.1836 3.94959 43.8821 3.42516C42.938 2.72227 41.7604 2.31563 40.4864 2.34305C37.4848 2.40774 35.1141 4.92504 35.1141 7.92715V11.3741C35.1141 11.4756 35.1341 11.576 35.1729 11.6698C35.2118 11.7635 35.2687 11.8487 35.3404 11.9204C35.4122 11.9921 35.4974 12.049 35.5911 12.0878C35.6848 12.1267 35.7853 12.1466 35.8868 12.1466H36.8799C38.3281 12.1466 39.5614 13.2727 39.6128 14.7199C39.6668 16.2393 38.4512 17.4879 36.944 17.4879H35.8869C35.7854 17.4879 35.6849 17.5079 35.5912 17.5467C35.4975 17.5855 35.4123 17.6424 35.3406 17.7141C35.2688 17.7858 35.2119 17.871 35.1731 17.9647C35.1342 18.0585 35.1143 18.1589 35.1143 18.2604V24.0639C35.1143 24.1653 35.1342 24.2658 35.1731 24.3595C35.2119 24.4533 35.2688 24.5384 35.3406 24.6102C35.4123 24.6819 35.4975 24.7388 35.5912 24.7776C35.6849 24.8164 35.7854 24.8364 35.8869 24.8364H41.6903C41.7918 24.8364 41.8923 24.8563 41.986 24.8951C42.0797 24.934 42.1649 24.9909 42.2367 25.0626C42.3084 25.1343 42.3653 25.2195 42.4041 25.3132C42.443 25.407 42.463 25.5074 42.463 25.6089V26.602C42.463 28.0501 43.589 29.2835 45.0363 29.335C46.5556 29.389 47.8042 28.1734 47.8042 26.6661V25.609C47.8042 25.2457 48.0554 24.9418 48.3932 24.8593C48.3331 24.8443 48.2714 24.8366 48.2095 24.8364Z" fill="#FF4654"/>
<path d="M49.0336 35.1636H38.3841C38.1792 35.1636 37.9827 35.245 37.8379 35.3898C37.693 35.5347 37.6116 35.7312 37.6116 35.9361V36.9292C37.6116 38.3773 36.4855 39.6106 35.0384 39.6621C33.5191 39.7161 32.2703 38.5005 32.2703 36.9932V35.9361C32.2703 35.8346 32.2503 35.7342 32.2115 35.6404C32.1727 35.5467 32.1158 35.4615 32.044 35.3898C31.9723 35.3181 31.8871 35.2612 31.7934 35.2224C31.6996 35.1835 31.5992 35.1636 31.4977 35.1636H24.9217L24.0895 36.024V41.5524H21.7152L19.7031 44.1608V46.4109L21.7554 48.4338H24.0493V51.0897L24.9218 52.0729C24.9218 55.075 27.2927 57.5923 30.2941 57.657C32.6943 57.7088 34.7519 56.2202 35.5511 54.112C35.7178 53.6721 36.1353 53.3742 36.6058 53.379C41.4591 53.4288 45.118 48.9703 44.2226 44.2686C44.1275 43.7692 44.3714 43.2601 44.8316 43.0442C47.5533 41.7678 49.5064 39.1248 49.804 35.998C49.8467 35.549 49.4847 35.1636 49.0336 35.1636Z" fill="#60B9FE"/>
<path d="M17.5731 34.391V33.3978C17.5731 31.9497 16.447 30.7164 14.9999 30.665C13.4806 30.611 12.2318 31.8265 12.2318 33.3338V34.391C12.2318 34.4924 12.2118 34.5929 12.173 34.6866C12.1342 34.7803 12.0773 34.8655 12.0055 34.9372C11.9338 35.009 11.8486 35.0659 11.7549 35.1047C11.6611 35.1435 11.5607 35.1635 11.4592 35.1635H7.96783L7.02693 35.7575C7.02693 35.7575 8.87802 42.0352 9.36095 42.9204C9.84388 43.8058 13.7071 49.9225 13.7071 50.4054C13.7071 50.8884 16.7654 54.1076 16.7654 54.1076L23.3967 55.9273C24.3768 54.8832 24.9222 53.5048 24.9218 52.0727V48.6257C24.9218 48.5243 24.9018 48.4238 24.863 48.3301C24.8242 48.2364 24.7673 48.1512 24.6956 48.0795C24.6238 48.0077 24.5387 47.9508 24.4449 47.912C24.3512 47.8732 24.2508 47.8532 24.1493 47.8532H23.0922C21.585 47.8532 20.3693 46.6046 20.4233 45.0852C20.4747 43.638 21.7081 42.5119 23.1563 42.5119H24.1494C24.2509 42.5119 24.3513 42.4919 24.4451 42.4531C24.5388 42.4143 24.6239 42.3574 24.6957 42.2857C24.7674 42.2139 24.8243 42.1288 24.8631 42.0351C24.9019 41.9413 24.9219 41.8409 24.9219 41.7394V35.1635H18.3457C18.2443 35.1635 18.1438 35.1435 18.0501 35.1047C17.9563 35.0659 17.8712 35.009 17.7994 34.9372C17.7277 34.8655 17.6707 34.7803 17.6319 34.6866C17.5931 34.5929 17.5731 34.4924 17.5731 34.391Z" fill="#73D578"/>
<path d="M22.2602 54.1119C22.0935 53.6719 21.6761 53.3741 21.2057 53.3789C16.3523 53.4287 12.6934 48.9701 13.5888 44.2685C13.684 43.7691 13.44 43.2599 12.9798 43.0441C10.0191 41.6557 7.96793 38.6499 7.96793 35.1635H0C0 38.6499 2.05113 41.6557 5.01188 43.0441C5.47207 43.2599 5.71605 43.7691 5.6209 44.2685C4.72547 48.97 8.38441 53.4285 13.2377 53.3789C13.7081 53.3741 14.1255 53.6719 14.2923 54.1119C15.0915 56.2201 17.1492 57.7087 19.5493 57.6569C21.0689 57.6241 22.4261 56.9621 23.3966 55.9275C22.9024 55.4026 22.5163 54.7857 22.2602 54.1119Z" fill="#00C63A"/>
</svg>
