<svg width="20" height="22" viewBox="0 0 20 22" fill="none" xmlns="http://www.w3.org/2000/svg">
<path fill-rule="evenodd" clip-rule="evenodd" d="M9.75 1.5C9.09226 1.5 8.44515 1.71164 6.83062 2.2643L6.2578 2.46037C4.74521 2.97814 3.6421 3.35605 2.86759 3.67069C2.481 3.82774 2.2009 3.95935 2.00429 4.07353C1.90722 4.1299 1.84034 4.17642 1.79567 4.21273C1.7578 4.24351 1.74336 4.26095 1.74129 4.26349C1.73936 4.26663 1.72693 4.2874 1.70943 4.33654C1.68944 4.39265 1.66729 4.47309 1.64571 4.58506C1.60204 4.81169 1.56894 5.12301 1.54608 5.54292C1.50028 6.38411 1.5 7.55833 1.5 9.16666V10.7414C1.5 15.9165 5.3699 18.4635 7.94879 19.59C8.32027 19.7523 8.53479 19.8441 8.7736 19.9052C9.00168 19.9636 9.28 20 9.75 20C10.22 20 10.4983 19.9636 10.7264 19.9052C10.9652 19.8441 11.1797 19.7523 11.5512 19.59C14.1301 18.4635 18 15.9165 18 10.7414V9.16666C18 7.55833 17.9997 6.38411 17.9539 5.54292C17.9311 5.12301 17.898 4.81169 17.8543 4.58506C17.8327 4.47309 17.8106 4.39265 17.7906 4.33654C17.7731 4.28737 17.7606 4.2666 17.7587 4.26348C17.7566 4.26092 17.7422 4.24349 17.7043 4.21273C17.6597 4.17642 17.5928 4.1299 17.4957 4.07353C17.2991 3.95935 17.019 3.82774 16.6324 3.67069C15.8579 3.35605 14.7548 2.97814 13.2422 2.46037L12.6694 2.2643C11.0549 1.71164 10.4077 1.5 9.75 1.5ZM6.47339 0.801115C7.91732 0.306583 8.81248 0 9.75 0C10.6875 0 11.5827 0.306583 13.0266 0.801117C13.069 0.81563 13.1118 0.830304 13.1552 0.845137L13.754 1.05013C15.2354 1.5572 16.3786 1.94852 17.197 2.28099C17.6092 2.44846 17.9636 2.61067 18.249 2.77641C18.5237 2.9359 18.7992 3.13484 18.9864 3.40154C19.1714 3.66516 19.2671 3.98924 19.3272 4.30122C19.3897 4.62556 19.4274 5.01464 19.4517 5.46136C19.5 6.3484 19.5 7.56361 19.5 9.13982V10.7414C19.5 16.8424 14.892 19.7675 12.1517 20.9646L12.1246 20.9764C11.7848 21.1249 11.4654 21.2644 11.0984 21.3584C10.7109 21.4576 10.2993 21.5 9.75 21.5C9.20074 21.5 8.78907 21.4576 8.4016 21.3584C8.03462 21.2644 7.71523 21.1249 7.37543 20.9764L7.34833 20.9646C4.60803 19.7675 1.75216e-08 16.8424 1.75216e-08 10.7414V9.1399C-1.5322e-06 7.56365 -2.72319e-06 6.34841 0.0482989 5.46136C0.0726239 5.01464 0.110312 4.62556 0.172814 4.30122C0.232934 3.98924 0.328605 3.66516 0.513632 3.40154C0.700822 3.13484 0.976343 2.9359 1.25098 2.77641C1.53637 2.61067 1.89078 2.44846 2.30303 2.28099C3.1214 1.94852 4.26462 1.5572 5.74595 1.05014L6.34483 0.845137C6.38817 0.830303 6.43101 0.815628 6.47339 0.801115Z" fill="#1C274C"/>
</svg>

